<?xml version="1.0" encoding="utf-8"?>
<!-- Generator: Adobe Illustrator 18.0.0, SVG Export Plug-In . SVG Version: 6.00 Build 0)  -->
<!DOCTYPE svg PUBLIC "-//W3C//DTD SVG 1.1//EN" "http://www.w3.org/Graphics/SVG/1.1/DTD/svg11.dtd">
<svg version="1.1" id="Layer_1" xmlns="http://www.w3.org/2000/svg" xmlns:xlink="http://www.w3.org/1999/xlink" x="0px" y="0px"
	 viewBox="0 0 112 85" enable-background="new 0 0 112 85" xml:space="preserve">
<g>
	<g>
		<path fill="#FFFFFF" d="M78,0c0,15.6,0,31.3-0.1,46.9c0,4.1,0.5,7.3,5.7,7.3c3.9,0,7.2-2.5,7.3-5.9c0.2-4.5-2.2-7-7.2-7.5
			c-0.7-0.1-1.3-0.1-2.3-0.3c0-6.4,0-12.8,0-19.2c15.5-3.9,29.9,7.2,30,23.3c0.1,16.9-6.9,27.4-21,31.3C77,79.8,60.5,70.2,57.3,56.7
			c-0.8-3.5-1.2-7.2-1.2-10.8C55.9,30.6,56,15.3,56,0C63.3,0,70.7,0,78,0z"/>
		<path fill="#FFFFFF" d="M52.8,21c0,6.3,0,11.9,0,18.3c-5-0.4-9.7-1-14.4-1.1c-1.4,0-2.8,1-4.3,1.6c0.9,1.2,1.5,2.7,2.7,3.6
			c2.5,1.9,5.2,3.6,7.8,5.3c6.8,4.4,8.9,8.9,7.2,15.3c-1.6,5.7-8.6,11.9-14.6,12c-9.1,0.1-18.3,0-27.8,0c0-6.3,0-12.3,0-18.9
			c5.4,0,10.9,0,16.3,0c0.3-0.4,0.7-0.9,1-1.3c-1.1-1.4-2-3.1-3.4-4.1c-2.7-1.9-5.8-3.2-8.4-5.3c-5.8-4.4-7.5-10-5.5-16
			C11.2,25,17.3,21,23.9,21C33.4,21,42.9,21,52.8,21z"/>
	</g>
</g>
</svg>
